# xmcd
#
# Track frame offsets:
#	150
#	12740
#	29114
#	44708
#	62669
#	81595
#	96923
#	117994
#	127916
#	143632
#
# Disc length: 2141 seconds
# Revision: 0
# Processed by: cddbd v1.5.2PL0 Copyright (c) Steve Scherf et al.
# Submitted via: dBpowerAMP V12.0
#
DISCID=94085b0a
DTITLE=Special Consensus - Rivers and Roads
DYEAR=2018
DGENRE=Bluegrass
TTITLE0=Way Down the River Road
TTITLE1=Hurting Sure
TTITLE2=She Took the Tennessee River
TTITLE3=Early
TTITLE4=Squirrel Hunters
TTITLE5=Big River
TTITLE6=Bought and Sold
TTITLE7=Travelin' Shoes
TTITLE8=Connected by a Runway
TTITLE9=Misty Morning
EXTD=
EXTT0=
EXTT1=
EXTT2=
EXTT3=
EXTT4=
EXTT5=
EXTT6=
EXTT7=
EXTT8=
EXTT9=
PLAYORDER=
